
<svg width="95px" height="height" viewBox="4624 -429 77 17" version="1.1" xmlns="http://www.w3.org/2000/svg" xmlns:xlink="http://www.w3.org/1999/xlink">
    <!-- Generator: Sketch 41 (35326) - http://www.bohemiancoding.com/sketch -->
    <desc>Created with Sketch.</desc>
    <defs></defs>
    <path d="M4637.3442,-425.7334 C4636.1282,-425.7334 4634.9902,-425.3984 4634.0082,-424.8244 C4636.0012,-423.6574 4637.3442,-421.4834 4637.3442,-418.9874 L4630.6722,-418.9874 C4630.6722,-418.7064 4630.6952,-418.4304 4630.7282,-418.1574 C4630.7382,-418.0804 4630.7502,-418.0034 4630.7632,-417.9264 C4630.7952,-417.7204 4630.8362,-417.5174 4630.8872,-417.3184 C4630.9042,-417.2514 4630.9192,-417.1824 4630.9392,-417.1154 C4631.0902,-416.5884 4631.3022,-416.0874 4631.5692,-415.6224 C4631.5912,-415.5824 4631.6162,-415.5434 4631.6392,-415.5044 C4631.7652,-415.2954 4631.9012,-415.0914 4632.0482,-414.8984 C4632.0642,-414.8774 4632.0792,-414.8554 4632.0962,-414.8334 C4632.4412,-414.3894 4632.8402,-413.9894 4633.2822,-413.6454 C4633.2912,-413.6384 4633.3002,-413.6314 4633.3102,-413.6254 C4633.5322,-413.4534 4633.7652,-413.2954 4634.0082,-413.1524 C4634.9902,-412.5774 4636.1282,-412.2424 4637.3442,-412.2424 C4641.0282,-412.2424 4644.0172,-415.2634 4644.0172,-418.9874 C4644.0172,-422.7134 4641.0282,-425.7334 4637.3442,-425.7334" id="Fill-1" stroke="none" fill="#fff" fill-rule="evenodd"></path>
    <path d="M4632.0961,-414.833 C4632.0801,-414.855 4632.0641,-414.877 4632.0481,-414.898 C4631.9011,-415.092 4631.7661,-415.295 4631.6401,-415.504 C4631.6161,-415.544 4631.5911,-415.583 4631.5691,-415.622 C4631.3021,-416.088 4631.0901,-416.589 4630.9391,-417.116 C4630.9191,-417.183 4630.9041,-417.25 4630.8871,-417.318 C4630.8361,-417.517 4630.7951,-417.721 4630.7631,-417.927 C4630.7501,-418.004 4630.7381,-418.08 4630.7281,-418.158 C4630.6951,-418.43 4630.6721,-418.706 4630.6721,-418.988 L4637.3441,-418.988 C4637.3441,-421.483 4636.0011,-423.657 4634.0081,-424.824 C4633.0271,-425.398 4631.8901,-425.733 4630.6721,-425.733 C4626.9881,-425.733 4624.0001,-422.713 4624.0001,-418.988 C4624.0001,-415.263 4626.9881,-412.243 4630.6721,-412.243 C4631.8891,-412.243 4633.0261,-412.577 4634.0081,-413.153 C4633.7661,-413.295 4633.5321,-413.454 4633.3101,-413.625 C4632.8401,-413.99 4632.4411,-414.389 4632.0961,-414.833 Z" id="Fill-4" stroke="none" fill="#339936" fill-rule="evenodd"></path>
    <path d="M4656.4097,-415.4527 C4656.1647,-415.1007 4655.8397,-414.8287 4655.4317,-414.6307 C4655.0257,-414.4347 4654.5527,-414.2987 4654.0137,-414.2227 C4653.4737,-414.1447 4652.9027,-414.1057 4652.2997,-414.1057 C4651.9777,-414.1057 4651.6947,-414.1087 4651.4497,-414.1167 C4651.2037,-414.1237 4650.9907,-414.1347 4650.8077,-414.1487 C4650.5977,-414.1627 4650.4157,-414.1757 4650.2627,-414.1907 L4650.2627,-419.3197 L4652.8897,-419.3197 C4653.4767,-419.3197 4654.0097,-419.2777 4654.4867,-419.1937 C4654.9627,-419.1087 4655.3727,-418.9697 4655.7157,-418.7727 C4656.0597,-418.5757 4656.3227,-418.3137 4656.5047,-417.9847 C4656.6857,-417.6547 4656.7787,-417.2517 4656.7787,-416.7757 C4656.7787,-416.2437 4656.6537,-415.8027 4656.4097,-415.4527 L4656.4097,-415.4527 Z M4650.2627,-425.4577 C4650.4997,-425.4857 4650.7657,-425.5057 4651.0607,-425.5197 C4651.3547,-425.5337 4651.7607,-425.5407 4652.2797,-425.5407 C4652.7977,-425.5407 4653.2877,-425.4977 4653.7507,-425.4147 C4654.2137,-425.3317 4654.6167,-425.2017 4654.9587,-425.0257 C4655.3027,-424.8497 4655.5727,-424.6197 4655.7687,-424.3327 C4655.9647,-424.0457 4656.0637,-423.6917 4656.0637,-423.2717 C4656.0637,-422.8227 4655.9677,-422.4527 4655.7787,-422.1577 C4655.5907,-421.8627 4655.3307,-421.6247 4655.0017,-421.4437 C4654.6727,-421.2607 4654.2837,-421.1347 4653.8347,-421.0647 C4653.3867,-420.9937 4652.9097,-420.9587 4652.4057,-420.9587 L4650.2627,-420.9587 L4650.2627,-425.4577 Z M4658.1217,-419.1087 C4657.6177,-419.6557 4656.9377,-420.0557 4656.0837,-420.3077 C4656.7147,-420.5607 4657.2197,-420.9417 4657.5977,-421.4527 C4657.9757,-421.9647 4658.1647,-422.6197 4658.1647,-423.4177 C4658.1647,-424.1337 4658.0107,-424.7357 4657.7027,-425.2267 C4657.3937,-425.7167 4656.9707,-426.1117 4656.4307,-426.4127 C4655.8907,-426.7147 4655.2547,-426.9287 4654.5187,-427.0547 C4653.7827,-427.1807 4652.9937,-427.2447 4652.1537,-427.2447 C4651.8597,-427.2447 4651.5437,-427.2357 4651.2077,-427.2227 C4650.8707,-427.2097 4650.5317,-427.1877 4650.1877,-427.1587 C4649.8457,-427.1317 4649.5047,-427.0967 4649.1687,-427.0547 C4648.8327,-427.0127 4648.5247,-426.9567 4648.2437,-426.8877 L4648.2437,-412.7617 C4648.5247,-412.6907 4648.8327,-412.6357 4649.1687,-412.5937 C4649.5047,-412.5507 4649.8457,-412.5167 4650.1877,-412.4877 C4650.5317,-412.4597 4650.8747,-412.4397 4651.2187,-412.4257 C4651.5617,-412.4117 4651.8807,-412.4047 4652.1737,-412.4047 C4654.4997,-412.4047 4656.1997,-412.7717 4657.2717,-413.5077 C4658.3437,-414.2437 4658.8797,-415.3387 4658.8797,-416.7967 C4658.8797,-417.7917 4658.6277,-418.5617 4658.1217,-419.1087 L4658.1217,-419.1087 Z" id="Fill-6" stroke="none" fill="#fff" fill-rule="evenodd"></path>
    <path d="M4698.4609,-415.8633 C4698.4609,-415.8633 4698.4609,-415.3803 4698.3609,-415.1473 C4698.0269,-414.3723 4696.7039,-413.8843 4695.8839,-413.8843 C4695.1179,-413.8843 4694.5079,-414.0203 4694.0589,-414.2943 C4693.6059,-414.5673 4693.3809,-415.0523 4693.3809,-415.7503 C4693.3809,-416.1213 4693.4739,-416.4203 4693.6589,-416.6543 C4693.8429,-416.8863 4694.0719,-417.0703 4694.3439,-417.2063 C4694.6189,-417.3433 4694.9189,-417.4333 4695.2479,-417.4743 C4695.5759,-417.5153 4695.8909,-417.5353 4696.1909,-417.5353 C4696.6299,-417.5353 4697.3689,-417.5133 4697.6919,-417.4593 C4698.0129,-417.4043 4698.3239,-417.3863 4698.4609,-417.3183 L4698.4609,-415.8633 Z M4700.1539,-421.2283 C4700.0099,-421.7413 4699.7729,-422.1793 4699.4449,-422.5503 C4699.1179,-422.9193 4698.6829,-423.2063 4698.1429,-423.4123 C4697.6029,-423.6173 4696.9429,-423.7183 4696.1619,-423.7183 C4695.4799,-423.7183 4694.8399,-423.6653 4694.2459,-423.5563 C4693.6489,-423.4453 4693.2279,-423.3373 4692.9819,-423.2263 L4693.2279,-421.6063 C4693.4619,-421.7163 4693.8209,-421.8153 4694.3059,-421.9043 C4694.7929,-421.9933 4695.3569,-422.0363 4695.9979,-422.0363 C4696.5029,-422.0363 4696.9149,-421.9613 4697.2289,-421.8113 C4697.5439,-421.6613 4697.7909,-421.4683 4697.9699,-421.2283 C4698.1459,-420.9883 4698.2729,-420.7103 4698.3499,-420.3963 C4698.4239,-420.0803 4698.4609,-419.7593 4698.4609,-419.4323 L4698.4609,-418.8773 C4698.4069,-418.8903 4697.4579,-419.0243 4696.7979,-419.0853 C4696.5849,-419.1053 4696.1989,-419.1153 4696.0059,-419.1153 C4695.3919,-419.1153 4694.8029,-419.0523 4694.2429,-418.9213 C4693.6819,-418.7903 4693.1919,-418.5933 4692.7739,-418.3263 C4692.3569,-418.0603 4692.0279,-417.7093 4691.7809,-417.2803 C4691.5339,-416.8493 4691.4109,-416.3323 4691.4109,-415.7303 C4691.4109,-415.1003 4691.5169,-414.5613 4691.7279,-414.1083 C4691.9409,-413.6583 4692.2349,-413.2963 4692.6129,-413.0213 C4692.9879,-412.7483 4693.4339,-412.5503 4693.9539,-412.4273 C4694.4759,-412.3043 4695.0429,-412.2423 4695.6579,-412.2423 C4698.2819,-412.2423 4700.1329,-413.6273 4700.3449,-415.3673 C4700.3609,-415.5003 4700.3689,-416.0133 4700.3689,-416.0133 L4700.3689,-419.5343 C4700.3689,-420.1503 4700.2969,-420.7153 4700.1539,-421.2283 L4700.1539,-421.2283 Z" id="Fill-8" stroke="none" fill="#fff" fill-rule="evenodd"></path>
    <path d="M4676.2075,-419.0108 C4676.2495,-419.3888 4676.3375,-419.7598 4676.4705,-420.1248 C4676.6035,-420.4888 4676.7885,-420.8108 4677.0265,-421.0908 C4677.2665,-421.3718 4677.5565,-421.5988 4677.8995,-421.7748 C4678.2425,-421.9508 4678.6395,-422.0368 4679.0875,-422.0368 C4679.8865,-422.0368 4680.5125,-421.7538 4680.9685,-421.1858 C4681.4235,-420.6188 4681.6445,-419.8928 4681.6305,-419.0108 L4676.2075,-419.0108 Z M4682.4925,-422.3208 C4681.7075,-423.2388 4680.5795,-423.6978 4679.1075,-423.6978 C4678.4785,-423.6978 4677.8605,-423.5778 4677.2595,-423.3418 C4676.6555,-423.1028 4676.1235,-422.7448 4675.6615,-422.2688 C4675.1985,-421.7928 4674.8275,-421.1928 4674.5475,-420.4718 C4674.2675,-419.7498 4674.1265,-418.9058 4674.1265,-417.9388 C4674.1265,-417.1128 4674.2345,-416.3518 4674.4535,-415.6578 C4674.6695,-414.9648 4675.0025,-414.3658 4675.4515,-413.8618 C4675.8995,-413.3568 4676.4705,-412.9598 4677.1645,-412.6738 C4677.8575,-412.3858 4678.6805,-412.2428 4679.6345,-412.2428 C4680.3905,-412.2428 4681.0655,-412.3128 4681.6625,-412.4528 C4682.2575,-412.5928 4682.6745,-412.7258 4682.9135,-412.8538 L4682.6395,-414.4918 C4682.4015,-414.3798 4682.0475,-414.2628 4681.5775,-414.1458 C4681.1095,-414.0258 4680.5305,-413.9668 4679.8435,-413.9668 C4678.6255,-413.9668 4677.7285,-414.2608 4677.1525,-414.8488 C4676.5785,-415.4378 4676.2495,-416.2998 4676.1655,-417.4348 L4683.6485,-417.4348 C4683.6625,-417.5468 4683.6685,-417.6688 4683.6685,-417.8018 L4683.6685,-418.1278 C4683.6685,-420.0048 4683.2775,-421.4028 4682.4925,-422.3208 L4682.4925,-422.3208 Z" id="Fill-11" stroke="none" fill="#fff" fill-rule="evenodd"></path>
    <path d="M4661.6802,-425.4351 C4661.3292,-425.4351 4661.0322,-425.5521 4660.7862,-425.7841 C4660.5402,-426.0141 4660.4182,-426.3251 4660.4182,-426.7191 C4660.4182,-427.1101 4660.5402,-427.4221 4660.7862,-427.6531 C4661.0322,-427.8841 4661.3292,-428.0001 4661.6802,-428.0001 C4662.0302,-428.0001 4662.3292,-427.8841 4662.5742,-427.6531 C4662.8182,-427.4221 4662.9402,-427.1101 4662.9402,-426.7191 C4662.9402,-426.3251 4662.8182,-426.0141 4662.5742,-425.7841 C4662.3292,-425.5521 4662.0302,-425.4351 4661.6802,-425.4351" id="Fill-13" stroke="none" fill="#fff" fill-rule="evenodd"></path>
    <polygon id="Fill-16" stroke="none" fill="#fff" fill-rule="evenodd" points="4660.712 -412.5297 4662.667 -412.5297 4662.667 -423.4607 4660.712 -423.4607"></polygon>
    <path d="M4673.0103,-421.9893 C4672.7163,-421.6663 4672.3273,-421.2123 4671.8433,-420.6233 C4671.3613,-420.0333 4670.8413,-419.3833 4670.2893,-418.6673 C4669.7343,-417.9533 4669.1823,-417.2023 4668.6283,-416.4183 C4668.0743,-415.6343 4667.5873,-414.8843 4667.1673,-414.1693 L4673.1783,-414.1693 L4673.1783,-412.5303 L4664.8343,-412.5303 L4664.8343,-413.8343 C4665.1703,-414.4483 4665.5853,-415.1303 4666.0743,-415.8723 C4666.5653,-416.6143 4667.0793,-417.3533 4667.6193,-418.0893 C4668.1583,-418.8253 4668.6843,-419.5193 4669.1963,-420.1703 C4669.7073,-420.8223 4670.1523,-421.3723 4670.5313,-421.8213 L4665.1283,-421.8213 L4665.1283,-423.4603 L4673.0103,-423.4603 L4673.0103,-421.9893 Z" id="Fill-18" stroke="none" fill="#fff" fill-rule="evenodd"></path>
    <path d="M4689.4512,-423.6797 C4689.6202,-423.6797 4689.8122,-423.6687 4690.0302,-423.6477 C4690.2462,-423.6277 4690.4612,-423.5987 4690.6712,-423.5637 C4690.8812,-423.5287 4691.0732,-423.4927 4691.2492,-423.4587 C4691.4242,-423.4237 4691.5532,-423.3927 4691.6382,-423.3637 L4691.3012,-421.6617 C4691.1472,-421.7177 4690.8912,-421.7837 4690.5332,-421.8617 C4690.1762,-421.9377 4689.7182,-421.9767 4689.1572,-421.9767 C4688.7922,-421.9767 4688.4322,-421.9377 4688.0752,-421.8617 C4687.7182,-421.7837 4687.4832,-421.7317 4687.3702,-421.7027 L4687.3702,-412.5187 L4685.4162,-412.5187 L4685.4162,-422.9857 C4685.8792,-423.1537 4686.4532,-423.3127 4687.1392,-423.4587 C4687.8262,-423.6057 4688.5972,-423.6797 4689.4512,-423.6797" id="Fill-19" stroke="none" fill="#fff" fill-rule="evenodd"></path>
    <path d="M4630.6943,-418.9878 C4630.6943,-418.9878 4630.4143,-415.2418 4633.0613,-412.6938 C4633.3573,-412.8148 4633.7353,-412.9918 4634.0083,-413.1528 C4632.0213,-414.3168 4630.6943,-416.4998 4630.6943,-418.9878" id="Fill-20" stroke="none" fill="#fff" fill-rule="evenodd" opacity="0.1" style="mix-blend-mode: multiply;"></path>
</svg>