<?xml version="1.0" standalone="no"?>
<!DOCTYPE svg PUBLIC "-//W3C//DTD SVG 20010904//EN"
 "http://www.w3.org/TR/2001/REC-SVG-20010904/DTD/svg10.dtd">
<svg version="1.0" xmlns="http://www.w3.org/2000/svg"
 width="700.000000pt" height="700.000000pt" viewBox="0 0 700.000000 700.000000"
 preserveAspectRatio="xMidYMid meet">
<metadata>
Created by potrace 1.11, written by Peter Selinger 2001-2013
</metadata>
<g transform="translate(0.000000,700.000000) scale(0.100000,-0.100000)"
fill="#000000" stroke="none">
<path d="M2277 5795 c-1 -1 -45 -5 -97 -9 -402 -27 -818 -183 -1158 -432 -42
-32 -79 -60 -82 -63 -3 -3 -26 -23 -51 -43 -202 -162 -429 -443 -552 -683 -98
-190 -189 -444 -223 -620 -2 -11 -6 -31 -9 -45 -3 -14 -7 -36 -10 -50 -3 -14
-7 -36 -9 -50 -17 -86 -24 -438 -12 -560 8 -87 18 -165 22 -171 2 -3 6 -21 9
-40 20 -119 82 -323 140 -459 74 -177 216 -425 290 -506 5 -6 17 -22 25 -34
53 -79 274 -303 386 -392 334 -265 742 -433 1180 -485 144 -17 442 -8 589 18
33 5 74 12 90 15 136 22 381 108 573 200 l133 64 142 -69 c267 -129 515 -202
777 -228 138 -14 430 -8 540 11 14 3 41 7 60 10 74 12 99 18 220 51 221 61
458 166 645 287 211 135 458 371 622 594 173 235 327 579 389 867 50 234 63
608 28 827 -83 521 -302 957 -664 1320 -307 308 -656 506 -1080 610 -63 15
-137 31 -165 36 -27 4 -59 9 -70 11 -45 9 -495 11 -555 2 -36 -5 -83 -12 -105
-15 -174 -23 -512 -133 -653 -211 -23 -13 -63 -34 -88 -47 l-45 -23 -112 56
c-141 71 -195 94 -321 136 -91 30 -229 67 -296 79 -14 2 -36 7 -50 10 -27 6
-80 12 -177 22 -62 6 -271 12 -276 9z m2600 -339 c66 -7 68 -8 188 -32 205
-41 477 -155 664 -278 167 -109 293 -224 472 -433 76 -87 203 -299 255 -426
19 -45 38 -91 43 -102 29 -66 83 -258 95 -340 4 -22 9 -53 12 -70 19 -107 26
-391 12 -519 -21 -215 -99 -479 -198 -682 -234 -476 -648 -838 -1145 -1003
-103 -34 -154 -48 -290 -77 -58 -12 -158 -18 -315 -18 -193 0 -296 7 -380 29
-30 8 -66 16 -80 19 -50 9 -235 68 -244 77 -6 5 -17 9 -26 9 -21 0 -208 93
-290 143 -159 99 -348 263 -470 407 -30 35 -59 70 -65 76 -60 70 -133 188
-202 324 -113 226 -196 522 -209 747 -3 59 -7 113 -9 119 -13 43 -23 42 1449
44 l509 0 -6 138 c-6 142 -25 273 -58 402 -11 41 -21 82 -24 90 -103 402 -384
848 -713 1132 -50 42 -55 36 78 91 87 36 267 91 330 102 19 3 59 10 88 15 30
5 88 13 130 16 42 4 78 7 80 9 5 4 261 -3 319 -9z"/>
</g>
</svg>
